<svg width="31" height="14" viewBox="0 0 31 14" fill="none" xmlns="http://www.w3.org/2000/svg">
<path d="M30.3865 2.77419L16.6451 13.6452C16.4815 13.7742 16.3043 13.8654 16.1135 13.9187C15.9226 13.9729 15.7181 14 15.5 14C15.2819 14 15.0774 13.9729 14.8865 13.9187C14.6957 13.8654 14.5185 13.7742 14.3549 13.6452L0.572559 2.77419C0.190853 2.47312 0 2.09677 0 1.64516C0 1.19355 0.204485 0.806452 0.613456 0.483871C1.02243 0.16129 1.49956 0 2.04485 0C2.59015 0 3.06728 0.16129 3.47625 0.483871L15.5 9.96774L27.5237 0.483871C27.9055 0.182796 28.3755 0.0322571 28.9339 0.0322571C29.4933 0.0322571 29.9776 0.193548 30.3865 0.516129C30.7955 0.838709 31 1.21505 31 1.64516C31 2.07527 30.7955 2.45161 30.3865 2.77419Z" fill="white"/>
</svg>
